<svg width="800" height="400" xmlns="http://www.w3.org/2000/svg" style="background:#fff; font-family:sans-serif;">
<text x="400.0" y="30" text-anchor="middle" font-size="16" font-weight="bold">Das Duell: Spin vs. Masse</text>
<line x1="60" y1="340" x2="740" y2="340" stroke="black" stroke-width="2"/>
<line x1="60" y1="60" x2="60" y2="340" stroke="black" stroke-width="2"/>
<text x="400.0" y="380" text-anchor="middle">Zeit</text>
<text x="20" y="200.0" text-anchor="middle" transform="rotate(-90 20 200.0)">Intensitaet</text>
<polyline points="60.0,334.5266832420307 63.417085427135675,330.65114181382455 66.83417085427135,327.6864219458873 70.25125628140702,325.3345551073998 73.66834170854271,323.4442955843362 77.08542713567837,321.9317698520717 80.50251256281405,320.7481719436967 83.91959798994972,319.8645903409007 87.33668341708541,319.26411667883053 90.75376884422109,318.93741545252976 94.17085427135676,318.8800845449015 97.58793969849243,319.0910065353159 101.00502512562811,319.5712786909625 104.4221105527638,320.3234964304864 107.83919597989947,321.3512609731766 111.25628140703515,322.65883379929124 114.67336683417082,324.25088993298414 118.09045226130651,326.13233934964717 121.50753768844218,328.30819633110315 124.92462311557787,330.78348318682504 128.34170854271355,333.56315900243874 131.75879396984922,336.6520668712822 135.1758793969849,340.0 138.59296482412057,340.0 142.01005025125625,340.0 145.42713567839195,340.0 148.8442211055276,340.0 152.2613065326633,340.0 155.67839195979897,340.0 159.09547738693465,340.0 162.51256281407032,340.0 165.929648241206,340.0 169.3467336683417,340.0 172.76381909547734,340.0 176.18090452261305,340.0 179.59798994974875,340.0 183.0150753768844,340.0 186.4321608040201,340.0 189.84924623115575,340.0 193.26633165829145,340.0 196.6834170854271,340.0 200.10050251256277,340.0 203.51758793969844,340.0 206.93467336683412,340.0 210.35175879396976,340.0 213.7688442211054,340.0 217.18592964824109,340.0 220.60301507537676,340.0 224.02010050251243,340.0 227.43718592964808,340.0 230.85427135678376,340.0 234.2713567839194,340.0 237.68844221105508,340.0 241.10552763819075,340.0 244.52261306532642,340.0 247.93969849246207,340.0 251.35678391959772,340.0 254.7738693467334,340.0 258.19095477386907,340.0 261.60804020100477,340.0 265.02512562814036,340.0 268.44221105527606,340.0 271.85929648241176,340.0 275.27638190954735,340.0 278.69346733668306,340.0 282.1105527638187,340.0 285.5276381909544,340.0 288.94472361809005,340.0 292.3618090452257,340.0 295.77889447236134,340.0 299.19597989949705,340.0 302.6130653266327,340.0 306.03015075376834,340.0 309.44723618090404,340.0 312.86432160803963,340.0 316.2814070351754,340.0 319.69849246231104,340.0 323.1155778894467,340.0 326.53266331658233,340.0 329.94974874371803,340.0 333.3668341708537,340.0 336.7839195979893,340.0 340.20100502512497,340.0 343.6180904522607,340.0 347.0351758793963,340.0 350.452261306532,340.0 353.86934673366767,340.0 357.2864321608033,340.0 360.703517587939,340.0 364.12060301507466,340.0 367.5376884422103,340.0 370.95477386934596,340.0 374.3718592964816,340.0 377.7889447236173,340.0 381.20603015075295,340.0 384.6231155778886,340.0 388.0402010050243,340.0 391.45728643215995,340.0 394.87437185929565,340.0 398.2914572864313,340.0 401.708542713567,340.0 405.1256281407026,340.0 408.5427135678383,340.0 411.9597989949739,340.0 415.3768844221096,340.0 418.7939698492453,340.0 422.21105527638093,340.0 425.6281407035166,340.0 429.0452261306523,340.0 432.4623115577879,340.0 435.87939698492363,340.0 439.2964824120592,340.0 442.7135678391949,340.0 446.1306532663306,340.0 449.5477386934662,340.0 452.9648241206019,340.0 456.38190954773756,340.0 459.7989949748732,340.0 463.2160804020089,340.0 466.63316582914456,340.0 470.05025125628026,340.0 473.4673366834159,340.0 476.88442211055155,340.0 480.30150753768726,340.0 483.71859296482285,340.0 487.13567839195855,340.0 490.55276381909425,340.0 493.96984924622984,340.0 497.38693467336554,340.0 500.8040201005012,340.0 504.2211055276369,340.0 507.63819095477254,340.0 511.0552763819082,340.0 514.4723618090438,340.0 517.8894472361796,340.0 521.3065326633152,340.0 524.7236180904508,340.0 528.1407035175864,340.0 531.5577889447222,340.0 534.9748743718578,340.0 538.3919597989935,340.0 541.8090452261292,340.0 545.2261306532648,340.0 548.6432160804005,340.0 552.0603015075362,340.0 555.4773869346718,340.0 558.8944723618075,340.0 562.3115577889432,340.0 565.7286432160788,340.0 569.1457286432145,340.0 572.5628140703501,340.0 575.9798994974858,340.0 579.3969849246215,340.0 582.8140703517571,340.0 586.2311557788928,340.0 589.6482412060284,340.0 593.0653266331641,340.0 596.4824120602998,340.0 599.8994974874355,340.0 603.3165829145711,340.0 606.7336683417068,340.0 610.1507537688425,340.0 613.5678391959782,340.0 616.9849246231139,340.0 620.4020100502496,340.0 623.8190954773854,340.0 627.2361809045211,340.0 630.6532663316568,340.0 634.0703517587925,340.0 637.4874371859282,340.0 640.904522613064,340.0 644.3216080401996,340.0 647.7386934673355,340.0 651.1557788944712,340.0 654.572864321607,340.0 657.9899497487426,340.0 661.4070351758783,340.0 664.8241206030141,340.0 668.2412060301498,340.0 671.6582914572855,340.0 675.0753768844212,340.0 678.4924623115569,340.0 681.9095477386927,340.0 685.3266331658284,340.0 688.7437185929641,340.0 692.1608040200998,340.0 695.5778894472356,340.0 698.9949748743713,340.0 702.412060301507,340.0 705.8291457286427,340.0 709.2462311557784,340.0 712.6633165829143,340.0 716.08040201005,340.0 719.4974874371857,340.0 722.9145728643214,340.0 726.3316582914571,340.0 729.7487437185929,340.0 733.1658291457286,340.0 736.5829145728643,340.0 740.0,340.0" fill="none" stroke="#3b82f6" stroke-width="3"/>
<rect x="600" y="50" width="10" height="10" fill="#3b82f6"/>
<text x="615" y="60" font-size="12">Quanten-Spin (Action)</text>
<polyline points="60.0,335.61292340656513 63.417085427135675,331.29116187441934 66.83417085427135,327.0337429889853 70.25125628140702,322.83970881305265 73.66834170854271,318.7081156712381 77.08542713567837,314.6380339376544 80.50251256281405,310.6285478267409 83.91959798994972,306.6787551872073 87.33668341708541,302.78776729904644 90.75376884422109,298.95470867356823 94.17085427135676,295.1787168564112 97.58793969849243,291.4589422334863 101.00502512562811,287.79454783981055 104.4221105527638,284.184709171186 107.83919597989947,280.6286139986832 111.25628140703515,277.1254621858858 114.67336683417082,273.674465508857 118.09045226130651,270.27484747878543 121.50753768844218,266.9258431672721 124.92462311557787,263.6266990342182 128.34170854271355,260.3766727582754 131.75879396984922,257.1750330698204 135.1758793969849,254.0210595864164 138.59296482412057,250.91404265072367 142.01005025125625,247.85328317082383 145.42713567839195,244.83809246292122 148.8442211055276,241.86779209638618 152.2613065326633,238.94171374110516 155.67839195979897,236.0591990171037 159.09547738693465,233.21959934640827 162.51256281407032,230.42227580711324 165.929648241206,227.66659898962104 169.3467336683417,224.95194885502207 172.76381909547734,222.2777145955836 176.18090452261305,219.6432944973152 179.59798994974875,217.04809580458073 183.0150753768844,214.49153458672575 186.4321608040201,211.97303560669064 189.84924623115575,209.49203219157994 193.26633165829145,207.0479661051584 196.6834170854271,204.64028742224562 200.10050251256277,202.26845440498042 203.51758793969844,199.93193338092775 206.93467336683412,197.6301986229999 210.35175879396976,195.36273223116584 213.7688442211054,193.12902401592137 217.18592964824109,190.9285713834946 220.60301507537676,188.76087922276002 224.02010050251243,186.62545979383643 227.43718592964808,184.52183261834344 230.85427135678376,182.44952437129183 234.2713567839194,180.40806877458337 237.68844221105508,178.3970064920964 241.10552763819075,176.41588502633306 244.52261306532642,174.46425861660572 247.93969849246207,172.54168813873866 251.35678391959772,170.64774100626346 254.7738693467334,168.7819910730851 258.19095477386907,166.94401853759754 261.60804020100477,165.1334098482262 265.02512562814036,163.34975761037742 268.44221105527606,161.59266049477287 271.85929648241176,159.86172314714875 275.27638190954735,158.1565560992994 278.69346733668306,156.47677568144528 282.1105527638187,154.82200393590574 285.5276381909544,153.19186853205696 288.94472361809005,151.58600268255586 292.3618090452257,150.00404506081148 295.77889447236134,148.44563971968506 299.19597989949705,146.9104360114002 302.6130653266327,145.39808850864597 306.03015075376834,143.90825692685382 309.44723618090404,142.44060604763268 312.86432160803963,140.994805643343 316.2814070351754,139.57053040279433 319.69849246231104,138.16745985804883 323.1155778894467,136.78527831231463 326.53266331658233,135.42367476891283 329.94974874371803,134.08234286130192 333.3668341708537,132.76098078414384 336.7839195979893,131.45929122539673 340.20100502512497,130.1769812994183 343.6180904522607,128.91376248106542 347.0351758793963,127.66935054077473 350.452261306532,126.44346548060975 353.86934673366767,125.23583147126021 357.2864321608033,124.04617678997928 360.703517587939,122.87423375944473 364.12060301507466,121.7197386875306 367.5376884422103,120.58243180797501 370.95477386934596,119.46205722193216 374.3718592964816,118.35836284039345 377.7889447236173,117.27110032746691 381.20603015075295,116.20002504450011 384.6231155778886,115.1448959950358 388.0402010050243,114.10547577058645 391.45728643215995,113.08153049721656 394.87437185929565,112.07282978291974 398.2914572864313,111.07914666577977 401.708542713567,110.10025756290321 405.1256281407026,109.13594222011221 408.5427135678383,108.18598366238635 411.9597989949739,107.2501681450425 415.3768844221096,106.32828510564127 418.7939698492453,105.42012711660956 422.21105527638093,104.52548983856855 425.6281407035166,103.64417197435631 429.0452261306523,102.77597522373534 432.4623115577879,101.92070423877405 435.87939698492363,101.07816657989267 439.2964824120592,100.24817267256338 442.7135678391949,99.43053576465547 446.1306532663306,98.62507188441526 449.5477386934662,97.83159979907165 452.9648241206019,97.04994097405793 456.38190954773756,96.27991953284075 459.7989949748732,95.52136221734736 463.2160804020089,94.77409834898162 466.63316582914456,94.03795979022058 470.05025125628026,93.31278090678285 473.4673366834159,92.5983985303603 476.88442211055155,91.89465192190445 480.30150753768726,91.20138273545945 483.71859296482285,90.51843498253356 487.13567839195855,89.84565499700122 490.55276381909425,89.18289140052732 493.96984924622984,88.52999506850662 497.38693467336554,87.88681909650998 500.8040201005012,87.2532187672303 504.2211055276369,86.62905151792043 507.63819095477254,86.0141769083161 511.0552763819082,85.40845658903609 514.4723618090438,84.81175427045318 517.8894472361796,84.2239356920283 521.3065326633152,83.64486859210149 524.7236180904508,83.07442267813224 528.1407035175864,82.51246959738336 531.5577889447222,81.95888290804089 534.9748743718578,81.41353805076432 538.3919597989935,80.87631232066002 541.8090452261292,80.34708483967228 545.2261306532648,79.82573652938521 548.6432160804005,79.31215008422959 552.0603015075362,78.80620994508843 555.4773869346718,78.30780227329603 558.8944723618075,77.81681492502366 562.3115577889432,77.33313742604645 565.7286432160788,76.85666094688662 569.1457286432145,76.38727827832628 572.5628140703501,75.92488380728474 575.9798994974858,75.46937349305529 579.3969849246215,75.02064484389547 582.8140703517571,74.57859689396622 586.2311557788928,74.14313018061387 589.6482412060284,73.7141467219908 593.0653266331641,73.29154999500889 596.4824120602998,72.87524491362188 599.8994974874355,72.4651378074301 603.3165829145711,72.06113640060454 606.7336683417068,71.66314979112423 610.1507537688425,71.27108843032306 613.5678391959782,70.88486410274078 616.9849246231139,70.50438990627435 620.4020100502496,70.12958023262433 623.8190954773854,69.76035074803303 627.2361809045211,69.39661837430862 630.6532663316568,69.03830127013254 634.0703517587925,68.68531881264471 637.4874371859282,68.33759157930302 640.904522613064,67.99504133001295 644.3216080401996,67.65759098952333 647.7386934673355,67.32516463008386 651.1557788944712,66.99768745436126 654.572864321607,66.67508577860946 657.9899497487426,66.35728701609042 661.4070351758783,66.04421966074176 664.8241206030141,65.73581327108792 668.2412060301498,65.43199845439 671.6582914572855,65.13270685103254 675.0753768844212,64.83787111914216 678.4924623115569,64.5474249194354 681.9095477386927,64.26130290029187 685.3266331658284,63.97944068305031 688.7437185929641,63.70177484752264 692.1608040200998,63.42824291772445 695.5778894472356,63.158783347817575 698.9949748743713,62.893335508262 702.412060301507,62.63183967217401 705.8291457286427,62.37423700188725 709.2462311557784,62.120469535714165 712.6633165829143,61.87048017490412 716.08040201005,61.62421267079645 719.4974874371857,61.381611612163795 722.9145728643214,61.1426224127444 726.3316582914571,60.907191298960186 729.7487437185929,60.675265297817305 733.1658291457286,60.44679222498712 736.5829145728643,60.22172067306417 740.0,60.0" fill="none" stroke="#ef4444" stroke-width="3"/>
<rect x="600" y="70" width="10" height="10" fill="#ef4444"/>
<text x="615" y="80" font-size="12">Masse (Bremse)</text>
</svg>