<svg width="800" height="400" xmlns="http://www.w3.org/2000/svg" style="background:#fff; font-family:sans-serif;">
<text x="400.0" y="30" text-anchor="middle" font-size="16" font-weight="bold">Die Page-Kurve: Resultat</text>
<line x1="60" y1="340" x2="740" y2="340" stroke="black" stroke-width="2"/>
<line x1="60" y1="60" x2="60" y2="340" stroke="black" stroke-width="2"/>
<text x="400.0" y="380" text-anchor="middle">Zeit</text>
<text x="20" y="200.0" text-anchor="middle" transform="rotate(-90 20 200.0)">Information / Entropie</text>
<polyline points="60.0,340.0 63.417085427135675,332.0003289736234 66.83417085427135,321.4637937488005 70.25125628140702,308.9148030314378 73.66834170854271,294.74834694687706 77.08542713567837,279.28764636356703 80.50251256281405,262.81415965109 83.91959798994972,245.58460604717385 87.33668341708541,227.8412365674679 90.75376884422109,209.81831398274377 94.17085427135676,191.74633424135553 97.58793969849243,173.85483713238528 101.00502512562811,156.37430135920505 104.4221105527638,139.53742648413254 107.83919597989947,123.57999357623564 111.25628140703515,108.74143018626711 114.67336683417082,95.26516420967698 118.09045226130651,83.39882493069456 121.50753768844218,73.3943322757022 124.92462311557787,65.50790368236926 128.34170854271355,60.0 131.75879396984922,106.92440618964079 135.1758793969849,153.8488123792816 138.59296482412057,200.77321856892237 142.01005025125625,247.6976247585632 145.42713567839195,294.622030948204 148.8442211055276,340.0 152.2613065326633,340.0 155.67839195979897,340.0 159.09547738693465,340.0 162.51256281407032,340.0 165.929648241206,340.0 169.3467336683417,340.0 172.76381909547734,340.0 176.18090452261305,340.0 179.59798994974875,340.0 183.0150753768844,340.0 186.4321608040201,340.0 189.84924623115575,340.0 193.26633165829145,340.0 196.6834170854271,340.0 200.10050251256277,340.0 203.51758793969844,340.0 206.93467336683412,340.0 210.35175879396976,340.0 213.7688442211054,340.0 217.18592964824109,340.0 220.60301507537676,340.0 224.02010050251243,340.0 227.43718592964808,340.0 230.85427135678376,340.0 234.2713567839194,340.0 237.68844221105508,340.0 241.10552763819075,340.0 244.52261306532642,340.0 247.93969849246207,340.0 251.35678391959772,340.0 254.7738693467334,340.0 258.19095477386907,340.0 261.60804020100477,340.0 265.02512562814036,340.0 268.44221105527606,340.0 271.85929648241176,340.0 275.27638190954735,340.0 278.69346733668306,340.0 282.1105527638187,340.0 285.5276381909544,340.0 288.94472361809005,340.0 292.3618090452257,340.0 295.77889447236134,340.0 299.19597989949705,340.0 302.6130653266327,340.0 306.03015075376834,340.0 309.44723618090404,340.0 312.86432160803963,340.0 316.2814070351754,340.0 319.69849246231104,340.0 323.1155778894467,340.0 326.53266331658233,340.0 329.94974874371803,340.0 333.3668341708537,340.0 336.7839195979893,340.0 340.20100502512497,340.0 343.6180904522607,340.0 347.0351758793963,340.0 350.452261306532,340.0 353.86934673366767,340.0 357.2864321608033,340.0 360.703517587939,340.0 364.12060301507466,340.0 367.5376884422103,340.0 370.95477386934596,340.0 374.3718592964816,340.0 377.7889447236173,340.0 381.20603015075295,340.0 384.6231155778886,340.0 388.0402010050243,340.0 391.45728643215995,340.0 394.87437185929565,340.0 398.2914572864313,340.0 401.708542713567,340.0 405.1256281407026,340.0 408.5427135678383,340.0 411.9597989949739,340.0 415.3768844221096,340.0 418.7939698492453,340.0 422.21105527638093,340.0 425.6281407035166,340.0 429.0452261306523,340.0 432.4623115577879,340.0 435.87939698492363,340.0 439.2964824120592,340.0 442.7135678391949,340.0 446.1306532663306,340.0 449.5477386934662,340.0 452.9648241206019,340.0 456.38190954773756,340.0 459.7989949748732,340.0 463.2160804020089,340.0 466.63316582914456,340.0 470.05025125628026,340.0 473.4673366834159,340.0 476.88442211055155,340.0 480.30150753768726,340.0 483.71859296482285,340.0 487.13567839195855,340.0 490.55276381909425,340.0 493.96984924622984,340.0 497.38693467336554,340.0 500.8040201005012,340.0 504.2211055276369,340.0 507.63819095477254,340.0 511.0552763819082,340.0 514.4723618090438,340.0 517.8894472361796,340.0 521.3065326633152,340.0 524.7236180904508,340.0 528.1407035175864,340.0 531.5577889447222,340.0 534.9748743718578,340.0 538.3919597989935,340.0 541.8090452261292,340.0 545.2261306532648,340.0 548.6432160804005,340.0 552.0603015075362,340.0 555.4773869346718,340.0 558.8944723618075,340.0 562.3115577889432,340.0 565.7286432160788,340.0 569.1457286432145,340.0 572.5628140703501,340.0 575.9798994974858,340.0 579.3969849246215,340.0 582.8140703517571,340.0 586.2311557788928,340.0 589.6482412060284,340.0 593.0653266331641,340.0 596.4824120602998,340.0 599.8994974874355,340.0 603.3165829145711,340.0 606.7336683417068,340.0 610.1507537688425,340.0 613.5678391959782,340.0 616.9849246231139,340.0 620.4020100502496,340.0 623.8190954773854,340.0 627.2361809045211,340.0 630.6532663316568,340.0 634.0703517587925,340.0 637.4874371859282,340.0 640.904522613064,340.0 644.3216080401996,340.0 647.7386934673355,340.0 651.1557788944712,340.0 654.572864321607,340.0 657.9899497487426,340.0 661.4070351758783,340.0 664.8241206030141,340.0 668.2412060301498,340.0 671.6582914572855,340.0 675.0753768844212,340.0 678.4924623115569,340.0 681.9095477386927,340.0 685.3266331658284,340.0 688.7437185929641,340.0 692.1608040200998,340.0 695.5778894472356,340.0 698.9949748743713,340.0 702.412060301507,340.0 705.8291457286427,340.0 709.2462311557784,340.0 712.6633165829143,340.0 716.08040201005,340.0 719.4974874371857,340.0 722.9145728643214,340.0 726.3316582914571,340.0 729.7487437185929,340.0 733.1658291457286,340.0 736.5829145728643,340.0 740.0,340.0" fill="none" stroke="#10b981" stroke-width="3"/>
<rect x="600" y="50" width="10" height="10" fill="#10b981"/>
<text x="615" y="60" font-size="12">Page-Kurve (Entropie)</text>
</svg>